<svg id="visual" viewBox="0 0 1980 1080" width="1980" height="1080" xmlns="http://www.w3.org/2000/svg" xmlns:xlink="http://www.w3.org/1999/xlink" version="1.1"><rect x="0" y="0" width="1980" height="1080" fill="#ffffff"></rect><defs><linearGradient id="grad1_0" x1="45.5%" y1="0%" x2="100%" y2="100%"><stop offset="13.333333333333334%" stop-color="#57ce00" stop-opacity="1"></stop><stop offset="86.66666666666667%" stop-color="#57ce00" stop-opacity="1"></stop></linearGradient></defs><defs><linearGradient id="grad1_1" x1="45.5%" y1="0%" x2="100%" y2="100%"><stop offset="13.333333333333334%" stop-color="#57ce00" stop-opacity="1"></stop><stop offset="86.66666666666667%" stop-color="#8bdb5b" stop-opacity="1"></stop></linearGradient></defs><defs><linearGradient id="grad1_2" x1="45.5%" y1="0%" x2="100%" y2="100%"><stop offset="13.333333333333334%" stop-color="#b6e893" stop-opacity="1"></stop><stop offset="86.66666666666667%" stop-color="#8bdb5b" stop-opacity="1"></stop></linearGradient></defs><defs><linearGradient id="grad1_3" x1="45.5%" y1="0%" x2="100%" y2="100%"><stop offset="13.333333333333334%" stop-color="#b6e893" stop-opacity="1"></stop><stop offset="86.66666666666667%" stop-color="#dcf4c9" stop-opacity="1"></stop></linearGradient></defs><defs><linearGradient id="grad1_4" x1="45.5%" y1="0%" x2="100%" y2="100%"><stop offset="13.333333333333334%" stop-color="#ffffff" stop-opacity="1"></stop><stop offset="86.66666666666667%" stop-color="#dcf4c9" stop-opacity="1"></stop></linearGradient></defs><defs><linearGradient id="grad2_0" x1="0%" y1="0%" x2="54.5%" y2="100%"><stop offset="13.333333333333334%" stop-color="#57ce00" stop-opacity="1"></stop><stop offset="86.66666666666667%" stop-color="#57ce00" stop-opacity="1"></stop></linearGradient></defs><defs><linearGradient id="grad2_1" x1="0%" y1="0%" x2="54.5%" y2="100%"><stop offset="13.333333333333334%" stop-color="#8bdb5b" stop-opacity="1"></stop><stop offset="86.66666666666667%" stop-color="#57ce00" stop-opacity="1"></stop></linearGradient></defs><defs><linearGradient id="grad2_2" x1="0%" y1="0%" x2="54.5%" y2="100%"><stop offset="13.333333333333334%" stop-color="#8bdb5b" stop-opacity="1"></stop><stop offset="86.66666666666667%" stop-color="#b6e893" stop-opacity="1"></stop></linearGradient></defs><defs><linearGradient id="grad2_3" x1="0%" y1="0%" x2="54.5%" y2="100%"><stop offset="13.333333333333334%" stop-color="#dcf4c9" stop-opacity="1"></stop><stop offset="86.66666666666667%" stop-color="#b6e893" stop-opacity="1"></stop></linearGradient></defs><defs><linearGradient id="grad2_4" x1="0%" y1="0%" x2="54.5%" y2="100%"><stop offset="13.333333333333334%" stop-color="#dcf4c9" stop-opacity="1"></stop><stop offset="86.66666666666667%" stop-color="#ffffff" stop-opacity="1"></stop></linearGradient></defs><g transform="translate(1980, 0)"><path d="M0 594C-121.1 588.4 -242.3 582.8 -297 514.4C-351.7 446 -340 314.7 -378.5 218.5C-416.9 122.3 -505.4 61.1 -594 0L0 0Z" fill="#edf9e4"></path><path d="M0 475.2C-96.9 470.7 -193.8 466.3 -237.6 411.5C-281.4 356.8 -272 251.8 -302.8 174.8C-333.5 97.8 -404.4 48.9 -475.2 0L0 0Z" fill="#c9eeae"></path><path d="M0 356.4C-72.7 353.1 -145.4 349.7 -178.2 308.7C-211 267.6 -204 188.8 -227.1 131.1C-250.1 73.4 -303.3 36.7 -356.4 0L0 0Z" fill="#a1e278"></path><path d="M0 237.6C-48.5 235.4 -96.9 233.1 -118.8 205.8C-140.7 178.4 -136 125.9 -151.4 87.4C-166.8 48.9 -202.2 24.5 -237.6 0L0 0Z" fill="#73d53b"></path><path d="M0 118.8C-24.2 117.7 -48.5 116.6 -59.4 102.9C-70.3 89.2 -68 62.9 -75.7 43.7C-83.4 24.5 -101.1 12.2 -118.8 0L0 0Z" fill="#57ce00"></path></g><g transform="translate(0, 1080)"><path d="M0 -594C109 -581.4 218 -568.8 297 -514.4C376 -460 424.9 -363.7 469.4 -271C513.9 -178.3 553.9 -89.1 594 0L0 0Z" fill="#edf9e4"></path><path d="M0 -475.2C87.2 -465.1 174.4 -455.1 237.6 -411.5C300.8 -368 339.9 -291 375.5 -216.8C411.1 -142.6 443.2 -71.3 475.2 0L0 0Z" fill="#c9eeae"></path><path d="M0 -356.4C65.4 -348.9 130.8 -341.3 178.2 -308.7C225.6 -276 254.9 -218.2 281.6 -162.6C308.3 -107 332.4 -53.5 356.4 0L0 0Z" fill="#a1e278"></path><path d="M0 -237.6C43.6 -232.6 87.2 -227.5 118.8 -205.8C150.4 -184 170 -145.5 187.8 -108.4C205.6 -71.3 221.6 -35.7 237.6 0L0 0Z" fill="#73d53b"></path><path d="M0 -118.8C21.8 -116.3 43.6 -113.8 59.4 -102.9C75.2 -92 85 -72.7 93.9 -54.2C102.8 -35.7 110.8 -17.8 118.8 0L0 0Z" fill="#57ce00"></path></g></svg>