<svg id="visual" viewBox="0 0 1980 1080" width="1980" height="1080" xmlns="http://www.w3.org/2000/svg" xmlns:xlink="http://www.w3.org/1999/xlink" version="1.1"><rect x="0" y="0" width="1980" height="1080" fill="#ffffff"></rect><defs><linearGradient id="grad1_0" x1="45.5%" y1="0%" x2="100%" y2="100%"><stop offset="13.333333333333334%" stop-color="#fcaf3c" stop-opacity="1"></stop><stop offset="86.66666666666667%" stop-color="#fcaf3c" stop-opacity="1"></stop></linearGradient></defs><defs><linearGradient id="grad1_1" x1="45.5%" y1="0%" x2="100%" y2="100%"><stop offset="13.333333333333334%" stop-color="#fcaf3c" stop-opacity="1"></stop><stop offset="86.66666666666667%" stop-color="#ffc980" stop-opacity="1"></stop></linearGradient></defs><defs><linearGradient id="grad1_2" x1="45.5%" y1="0%" x2="100%" y2="100%"><stop offset="13.333333333333334%" stop-color="#ffe4bf" stop-opacity="1"></stop><stop offset="86.66666666666667%" stop-color="#ffc980" stop-opacity="1"></stop></linearGradient></defs><defs><linearGradient id="grad1_3" x1="45.5%" y1="0%" x2="100%" y2="100%"><stop offset="13.333333333333334%" stop-color="#ffe4bf" stop-opacity="1"></stop><stop offset="86.66666666666667%" stop-color="#ffffff" stop-opacity="1"></stop></linearGradient></defs><defs><linearGradient id="grad2_0" x1="0%" y1="0%" x2="54.5%" y2="100%"><stop offset="13.333333333333334%" stop-color="#fcaf3c" stop-opacity="1"></stop><stop offset="86.66666666666667%" stop-color="#fcaf3c" stop-opacity="1"></stop></linearGradient></defs><defs><linearGradient id="grad2_1" x1="0%" y1="0%" x2="54.5%" y2="100%"><stop offset="13.333333333333334%" stop-color="#ffc980" stop-opacity="1"></stop><stop offset="86.66666666666667%" stop-color="#fcaf3c" stop-opacity="1"></stop></linearGradient></defs><defs><linearGradient id="grad2_2" x1="0%" y1="0%" x2="54.5%" y2="100%"><stop offset="13.333333333333334%" stop-color="#ffc980" stop-opacity="1"></stop><stop offset="86.66666666666667%" stop-color="#ffe4bf" stop-opacity="1"></stop></linearGradient></defs><defs><linearGradient id="grad2_3" x1="0%" y1="0%" x2="54.5%" y2="100%"><stop offset="13.333333333333334%" stop-color="#ffffff" stop-opacity="1"></stop><stop offset="86.66666666666667%" stop-color="#ffe4bf" stop-opacity="1"></stop></linearGradient></defs><g transform="translate(1980, 0)"><path d="M0 594C-67.9 560.3 -135.8 526.7 -207.8 501.7C-279.8 476.7 -356 460.3 -416.5 416.5C-477 372.6 -521.8 301.3 -548.8 227.3C-575.8 153.3 -584.9 76.7 -594 0L0 0Z" fill="#fff1df"></path><path d="M0 445.5C-50.9 420.3 -101.8 395 -155.8 376.2C-209.9 357.5 -267 345.2 -312.4 312.4C-357.7 279.5 -391.4 226 -411.6 170.5C-431.8 115 -438.7 57.5 -445.5 0L0 0Z" fill="#ffd69f"></path><path d="M0 297C-33.9 280.2 -67.9 263.3 -103.9 250.8C-139.9 238.3 -178 230.2 -208.2 208.2C-238.5 186.3 -260.9 150.7 -274.4 113.7C-287.9 76.7 -292.4 38.3 -297 0L0 0Z" fill="#ffbc5f"></path><path d="M0 148.5C-17 140.1 -33.9 131.7 -51.9 125.4C-70 119.2 -89 115.1 -104.1 104.1C-119.2 93.2 -130.5 75.3 -137.2 56.8C-143.9 38.3 -146.2 19.2 -148.5 0L0 0Z" fill="#fcaf3c"></path></g><g transform="translate(0, 1080)"><path d="M0 -594C80.5 -588.6 161 -583.1 227.3 -548.8C293.6 -514.5 345.6 -451.3 391.7 -391.7C437.9 -332.2 478.2 -276.3 510.9 -211.6C543.6 -146.9 568.8 -73.5 594 0L0 0Z" fill="#fff1df"></path><path d="M0 -445.5C60.4 -441.4 120.8 -437.3 170.5 -411.6C220.2 -385.8 259.2 -338.5 293.8 -293.8C328.4 -249.1 358.6 -207.2 383.2 -158.7C407.7 -110.2 426.6 -55.1 445.5 0L0 0Z" fill="#ffd69f"></path><path d="M0 -297C40.3 -294.3 80.5 -291.6 113.7 -274.4C146.8 -257.2 172.8 -225.6 195.9 -195.9C218.9 -166.1 239.1 -138.2 255.5 -105.8C271.8 -73.5 284.4 -36.7 297 0L0 0Z" fill="#ffbc5f"></path><path d="M0 -148.5C20.1 -147.1 40.3 -145.8 56.8 -137.2C73.4 -128.6 86.4 -112.8 97.9 -97.9C109.5 -83 119.5 -69.1 127.7 -52.9C135.9 -36.7 142.2 -18.4 148.5 0L0 0Z" fill="#fcaf3c"></path></g></svg>